<svg xmlns="http://www.w3.org/2000/svg" width="508.003" height="457" viewBox="0 0 508.003 457">
  <g id="Group_11" data-name="Group 11" transform="translate(-158.999 -327)">
    <g id="Union_1" data-name="Union 1" transform="translate(158.999 327)" fill="#87e154">
      <path d="M 507.5015563964844 230.0891723632813 L 365.7667541503906 147.5261688232422 L 254.2533721923828 82.56772613525391 L 254.0016784667969 82.42116546630859 L 253.7499847412109 82.56772613525391 L 142.2365570068359 147.5261688232422 L 0.5018659830093384 230.0889892578125 L 0.5018659830093384 148.2456512451172 L 254.0016784667969 0.5786533951759338 L 379.1816711425781 73.49791717529297 L 379.9333801269531 73.93572998046875 L 379.9333801269531 73.06585693359375 L 379.9333801269531 9.499979019165039 L 447.9206848144531 9.499979019165039 L 447.9206848144531 113.2520446777344 L 447.9206848144531 113.5394134521484 L 448.1689758300781 113.6841049194336 L 507.5015563964844 148.2461853027344 L 507.5015563964844 230.0891723632813 Z" stroke="none"/>
      <path d="M 507.0015563964844 229.2192993164063 L 507.0015563964844 148.5335083007813 L 447.9173583984375 114.1161041259766 L 447.4206848144531 113.826789855957 L 447.4206848144531 113.2520446777344 L 447.4206848144531 9.999979019165039 L 380.4333801269531 9.999979019165039 L 380.4333801269531 73.06585693359375 L 380.4333801269531 74.8056640625 L 378.9300537109375 73.92991638183594 L 254.0016784667969 1.157228469848633 L 1.001865983009338 148.532958984375 L 1.001865983009338 229.2191162109375 L 141.98486328125 147.0941619873047 L 253.4983062744141 82.13572692871094 L 254.0016784667969 81.84247589111328 L 254.5050506591797 82.13572692871094 L 366.0184326171875 147.0941619873047 L 507.0015563964844 229.2192993164063 M 508.0015563964844 230.9607238769531 L 508.0015563964844 230.9589233398438 L 507.9996032714844 230.9579772949219 L 365.5150451660156 147.9582366943359 L 254.0016784667969 82.99979400634766 L 142.4882354736328 147.9582366943359 L 0.001865966827608645 230.9589233398438 L -9.033203241415322e-06 230.9571075439453 L 0.001865966827608645 230.9562225341797 L 0.001865966827608645 147.9582366943359 L 254.0016784667969 -2.069091715384275e-05 L 379.4333801269531 73.06585693359375 L 379.4333801269531 8.999979019165039 L 448.4206848144531 8.999979019165039 L 448.4206848144531 113.2520446777344 L 508.0006103515625 147.9582366943359 L 508.0015563964844 147.9582366943359 L 508.0033569335938 147.9599761962891 L 508.0015563964844 147.9599761962891 L 508.0015563964844 230.9589233398438 L 508.0015563964844 230.9571075439453 L 508.0015563964844 230.9589233398438 L 508.0015563964844 230.9607238769531 Z" stroke="none" fill="#87e154"/>
    </g>
    <g id="Exclusion_10" data-name="Exclusion 10" transform="translate(195 535)" fill="rgba(64,113,40,0.97)">
      <path d="M 435.5 248.4989471435547 L 0.5000152587890625 248.4989471435547 L 0.5000152587890625 121.8829650878906 L 218.0000152587891 0.5725095868110657 L 435.5 121.8829650878906 L 435.5 248.4989471435547 Z M 435.6662292480469 121.8723526000977 L 435.6437072753906 121.833984375 L 436.2566528320313 121.1612548828125 L 436.4812927246094 121.7202224731445 L 435.6662292480469 121.8723526000977 Z" stroke="none"/>
      <path d="M 435 247.9989471435547 L 435 122.1766052246094 L 218.0000152587891 1.145019173622131 L 1.000015258789063 122.1766052246094 L 1.000015258789063 247.9989471435547 L 435 247.9989471435547 M 436 249 L 436 248.9989471435547 L 1.52587890625e-05 248.9989471435547 L 1.52587890625e-05 121.5893325805664 L 218.0000152587891 0 L 436 121.5893325805664 L 436 248.9989929199219 L 436 249 Z M 436 121.5893325805664 L 435.9989013671875 121.5886688232422 L 435.9990844726563 121.5880584716797 L 436 121.5893325805664 Z" stroke="none" fill="#46752f"/>
    </g>
    <g id="Subtraction_3" data-name="Subtraction 3" transform="translate(194.999 430)" fill="#61af41">
      <path d="M 435.5006713867188 208.7388305664063 L 278.468017578125 121.1533050537109 L 218.2444000244141 87.5634765625 L 218.0008392333984 87.42764282226563 L 217.7572784423828 87.5634765625 L 157.5338897705078 121.1533050537109 L 0.5016101598739624 208.7385101318359 L 0.5010617971420288 121.8836059570313 L 218.0008392333984 0.5725407004356384 L 435.5006713867188 121.8836059570313 L 435.5006713867188 208.7388305664063 Z" stroke="none"/>
      <path d="M 435.0006713867188 207.8873901367188 L 435.0006713867188 122.17724609375 L 218.0008392333984 1.145051121711731 L 1.001063585281372 122.1772384643555 L 1.001604795455933 207.8871154785156 L 157.2903442382813 120.7166442871094 L 217.5137329101563 87.12680816650391 L 218.0008392333984 86.85514068603516 L 218.4879455566406 87.12680816650391 L 278.7115478515625 120.7166442871094 L 435.0006713867188 207.8873901367188 M 436.0006713867188 209.5919799804688 L 436.0006713867188 209.5901947021484 L 435.9991760253906 209.5893707275391 L 278.2244567871094 121.589973449707 L 218.0008392333984 88.00014495849609 L 157.7774505615234 121.589973449707 L 0.001059936475940049 209.5901947021484 L 4.380967766337562e-06 209.5885314941406 L 0.001615492044948041 209.5875854492188 L 0.001059936475940049 121.589973449707 L 218.0008392333984 3.028700120921712e-05 L 436.0006713867188 121.589973449707 L 436.0041198730469 121.5918045043945 L 436.0006713867188 121.5918045043945 L 436.0006713867188 209.5901947021484 L 436.0006713867188 209.5919799804688 Z" stroke="none" fill="#61af41"/>
    </g>
  </g>
</svg>
